<svg width="23" height="23" viewBox="0 0 23 23" fill="none" xmlns="http://www.w3.org/2000/svg">
<path d="M12.8773 4.84738C15.5404 6.05735 18.2 7.27429 20.8689 8.47147C21.6303 8.8132 22.2809 9.25491 22.6238 10.0664C23.2668 11.5845 22.5547 13.3001 20.9755 14.0199C19.2545 14.8039 17.5317 15.5841 15.81 16.3658C11.7726 18.1987 7.73343 20.0258 3.69946 21.8664C2.76158 22.294 1.87686 22.3272 1.06124 21.7025C0.0947447 20.9631 -0.158497 19.6777 0.427856 18.5344C1.2339 16.964 2.04764 15.3985 2.86473 13.8338C3.69309 12.2474 3.75629 10.6636 3.04845 9.07941C2.34957 7.51758 1.63965 5.96085 0.954108 4.39315C0.529704 3.42331 0.644978 2.47459 1.34485 1.63522C2.02589 0.819542 2.91216 0.516649 3.88448 0.799528C4.52787 0.986596 5.12889 1.31305 5.74244 1.59189C8.12205 2.67447 10.4993 3.7617 12.8773 4.84738Z" fill="#2F2F2F"/>
</svg>
