<svg width="44" height="40" viewBox="0 0 44 40" fill="none" xmlns="http://www.w3.org/2000/svg">
<path d="M10.7627 22.5478C7.87228 17.8643 4.99339 13.1744 2.08331 8.50364C1.25331 7.17088 0.675532 5.81066 0.879295 4.23815C1.2583 1.29475 3.82232 -0.46777 6.79885 0.184472C10.0422 0.895819 13.2848 1.61476 16.5271 2.33025C24.1303 4.00855 31.7309 5.69723 39.3357 7.36035C41.1035 7.74744 42.4459 8.66005 43.1079 10.4701C43.8931 12.6137 43.1398 14.7895 41.2653 15.8425C38.6893 17.2883 36.1063 18.7184 33.5189 20.1438C30.8958 21.589 29.4108 23.8619 29.0699 26.9735C28.7354 30.0422 28.4218 33.1155 28.0624 36.1784C27.8404 38.0736 26.836 39.351 25.0598 39.8313C23.3323 40.2971 21.7507 39.7817 20.5559 38.3066C19.7652 37.3308 19.1598 36.1949 18.4939 35.1157C15.9126 30.9288 13.3389 26.7376 10.7627 22.5478Z" fill="#FFB703"/>
</svg>
