<svg width="16" height="20" viewBox="0 0 16 20" fill="none" xmlns="http://www.w3.org/2000/svg">
<path d="M4.77306 7.1407C4.77306 7.0126 4.77306 6.9181 4.77306 6.8236C4.77306 5.1009 4.77238 3.3775 4.77306 1.6548C4.77373 0.874298 5.21137 0.420698 5.96432 0.419998C7.32499 0.419298 8.68566 0.418598 10.0463 0.419998C10.7825 0.420698 11.2255 0.878498 11.2262 1.6401C11.2275 3.4587 11.2268 5.278 11.2268 7.1232C11.3048 7.1288 11.3761 7.1386 11.448 7.1386C11.9435 7.14 12.4389 7.1344 12.9344 7.1414C13.3882 7.1484 13.7223 7.3689 13.9072 7.8022C14.0914 8.2341 14.0241 8.638 13.7344 9.0006C13.6806 9.0678 13.6194 9.128 13.5603 9.1896C11.9986 10.8164 10.4369 12.4425 8.87457 14.0686C8.28768 14.6797 7.70549 14.6818 7.12331 14.0756C5.54348 12.4306 3.96432 10.7849 2.38314 9.1413C2.16196 8.9117 1.99995 8.6583 1.98986 8.3202C1.97037 7.6678 2.42482 7.154 3.05272 7.1414C3.61339 7.1323 4.17541 7.1407 4.77306 7.1407Z" fill="#023047"/>
<path d="M7.9972 17.22C10.1397 17.22 12.2822 17.2186 14.4248 17.2214C14.9713 17.2221 15.4217 17.6057 15.5091 18.1279C15.6012 18.6781 15.3216 19.1982 14.8227 19.3844C14.7058 19.4278 14.578 19.4411 14.4543 19.4614C14.3972 19.4705 14.3367 19.4642 14.2782 19.4642C10.094 19.4642 5.90981 19.4649 1.72628 19.4614C1.54409 19.4614 1.35317 19.4432 1.18241 19.3837C0.689638 19.2122 0.414008 18.7082 0.487285 18.1587C0.55384 17.6568 0.992159 17.2487 1.49502 17.2214C1.57905 17.2172 1.66308 17.2193 1.74712 17.2193C3.82981 17.22 5.91384 17.22 7.9972 17.22Z" fill="#023047"/>
</svg>
