<?xml version="1.0" encoding="UTF-8" standalone="no"?>
<svg
   width="24"
   height="17"
   viewBox="0 0 24 17"
   fill="none"
   version="1.1"
   id="svg17"
   sodipodi:docname="email.svg"
   inkscape:version="1.2.2 (b0a8486541, 2022-12-01)"
   xmlns:inkscape="http://www.inkscape.org/namespaces/inkscape"
   xmlns:sodipodi="http://sodipodi.sourceforge.net/DTD/sodipodi-0.dtd"
   xmlns="http://www.w3.org/2000/svg"
   xmlns:svg="http://www.w3.org/2000/svg">
  <sodipodi:namedview
     id="namedview19"
     pagecolor="#ffffff"
     bordercolor="#000000"
     borderopacity="0.25"
     inkscape:showpageshadow="2"
     inkscape:pageopacity="0.0"
     inkscape:pagecheckerboard="0"
     inkscape:deskcolor="#d1d1d1"
     showgrid="false"
     inkscape:zoom="6.9405134"
     inkscape:cx="9.5814238"
     inkscape:cy="19.667133"
     inkscape:window-width="1854"
     inkscape:window-height="1011"
     inkscape:window-x="66"
     inkscape:window-y="32"
     inkscape:window-maximized="1"
     inkscape:current-layer="svg17" />
  <g
     clip-path="url(#clip0_287_78)"
     id="g10">
    <path
       d="M1.43066 1.81641C3.62912 4.04594 5.81399 6.26157 8.00226 8.48068C5.80549 10.7067 3.62006 12.9218 1.42556 15.1449C1.42499 15.1438 1.42443 15.142 1.42443 15.1409C1.31283 14.8013 1.25562 14.4448 1.25562 14.0867C1.25562 10.3747 1.25562 6.66262 1.25562 2.95059C1.25505 2.56577 1.31453 2.18268 1.43066 1.81641Z"
       fill="black"
       id="path2" />
    <path
       d="M22.833 15.1755L22.8313 15.1807C20.6334 12.9517 18.4491 10.7367 16.2603 8.51699C18.4615 6.28803 20.651 4.07067 22.8426 1.85156C22.8432 1.85272 22.8437 1.85446 22.8437 1.85562C22.9519 2.19582 23.0075 2.55166 23.0075 2.90982V14.0517C23.0075 14.4331 22.9485 14.8127 22.833 15.1755Z"
       fill="black"
       id="path4" />
    <path
       d="M2.35107 0.83094C2.61675 0.772985 2.83427 0.721405 3.05406 0.680257C3.13677 0.665188 3.22344 0.673882 3.30841 0.673882C9.19118 0.673882 15.074 0.674461 20.9573 0.672143C21.2717 0.672143 21.5747 0.709814 21.8829 0.8576C21.8229 0.924248 21.7775 0.976987 21.7294 1.02683C18.7311 4.10483 15.7322 7.18283 12.7327 10.2603C12.3396 10.6636 11.9244 10.663 11.5313 10.2597C8.53181 7.18283 5.53293 4.10483 2.53461 1.02683C2.48986 0.981044 2.44681 0.933521 2.35107 0.83094Z"
       fill="black"
       id="path6" />
    <path
       d="M15.3149 9.47867C17.5048 11.6978 19.6857 13.9076 21.9114 16.1632C21.652 16.2218 21.4373 16.2751 21.2209 16.3168C21.1387 16.3324 21.0515 16.3238 20.9665 16.3238C15.0775 16.3238 9.18909 16.3238 3.30008 16.3249C2.98739 16.3249 2.68376 16.293 2.38184 16.1342C4.57747 13.9093 6.75837 11.6995 8.95457 9.47461C8.97213 9.49142 9.02934 9.54184 9.08202 9.59631C9.60204 10.1295 10.1204 10.6638 10.6409 11.1965C11.5207 12.0977 12.7408 12.0977 13.6234 11.1982C14.1938 10.6157 14.7671 10.035 15.3149 9.47867Z"
       fill="black"
       id="path8" />
  </g>
  <defs
     id="defs15">
    <clipPath
       id="clip0_287_78">
      <rect
         width="23.2632"
         height="17"
         fill="white"
         transform="translate(0.5 -0.000488281)"
         id="rect12" />
    </clipPath>
  </defs>
</svg>
