<svg width="20" height="20" viewBox="0 0 20 20" fill="none" xmlns="http://www.w3.org/2000/svg">
<path d="M9.56894 0H9.92803C10.1015 0 10.2742 0.0168582 10.447 0.0318008C10.4473 0.0318008 10.4481 0.0318008 10.4485 0.0318008C12.5943 0.20728 14.4992 0.990038 16.0879 2.45709C18.7568 4.92222 19.8735 7.98965 19.1814 11.592C18.0042 17.7222 11.3697 21.2556 5.52879 18.4916C5.40568 18.4333 5.29545 18.3988 5.15341 18.4326C3.93826 18.7184 2.72083 18.9935 1.50492 19.2762C1.02765 19.3874 0.552652 19.5092 0.0768939 19.6261C0.0594697 19.6103 0.0587121 19.6096 0.0412879 19.5939C0.0469697 19.5513 0.0518939 19.5084 0.0609848 19.4667C0.422348 17.7981 0.785606 16.1299 1.14205 14.4602C1.16098 14.3713 1.14432 14.2567 1.10341 14.1755C0.645076 13.2663 0.308712 12.3161 0.142424 11.3077C0.0871212 10.9751 0.0469697 10.6402 0 10.3065C0.000378788 9.90498 0.00113636 9.5092 0.00151515 9.10766C0.0625 8.68353 0.108712 8.25632 0.187879 7.83563C0.915909 3.96628 4.14962 0.782376 7.98826 0.152107C8.20114 0.117241 8.41515 0.0885057 8.62917 0.0605364C8.94053 0.0199234 9.25455 0 9.56894 0ZM2.02121 17.5816C2.08371 17.5693 2.11894 17.5636 2.15379 17.5556C3.19848 17.3157 4.24356 17.0785 5.28674 16.8329C5.46061 16.792 5.60379 16.8042 5.76742 16.8931C7.69924 17.9433 9.7375 18.1996 11.8489 17.6138C17.1932 16.131 19.5326 9.96513 16.5409 5.29195C14.7197 2.44789 11.336 0.999617 8.04659 1.70153C5.61136 2.22069 3.75833 3.5931 2.5303 5.78582C1.67462 7.31341 1.36326 8.96552 1.58182 10.7126C1.725 11.8556 2.11553 12.9111 2.68523 13.9042C2.73409 13.9897 2.76818 14.1119 2.74962 14.2042C2.60492 14.9157 2.4447 15.6241 2.29015 16.3337C2.20114 16.7425 2.11402 17.1513 2.02121 17.5816Z" fill="#023047"/>
<path d="M6.76814 5.43757C7.33329 5.43757 7.40943 5.48546 7.60488 5.95711C7.81663 6.4686 8.01928 6.98393 8.23291 7.49466C8.29693 7.64791 8.3117 7.79696 8.21625 7.93106C8.05905 8.15213 7.89769 8.37167 7.7189 8.57473C7.49314 8.83106 7.47913 8.88661 7.65072 9.17473C8.36094 10.3671 9.34541 11.2364 10.6227 11.7629C10.8731 11.8663 10.9609 11.8525 11.1337 11.6425C11.3515 11.3778 11.5662 11.11 11.7772 10.8395C11.9397 10.6314 12.0261 10.5824 12.2625 10.692C12.8863 10.9816 13.5041 11.2855 14.1155 11.6012C14.1931 11.641 14.2606 11.7862 14.2598 11.882C14.2545 12.4954 14.0844 13.0249 13.5481 13.4023C12.8602 13.887 12.1322 13.9272 11.3458 13.7368C9.28443 13.2376 7.69996 12.0502 6.47496 10.3322C6.05072 9.7368 5.61738 9.14638 5.40337 8.42991C5.10375 7.42646 5.26852 6.52952 5.99428 5.75481C6.22496 5.50922 6.49314 5.39619 6.76814 5.43757Z" fill="#023047"/>
</svg>
