<svg width="488" height="455" viewBox="0 0 488 455" fill="none" xmlns="http://www.w3.org/2000/svg">
<circle cx="221.5" cy="233.057" r="221.5" fill="#FFB703"/>
<path d="M429.346 304.61C429.849 291.024 432.163 261.334 437.395 251.27L441.922 246.238L450.474 238.69L460.534 231.142L466.068 226.11C468.415 224.265 472.406 219.266 469.589 214.033L466.068 211.517C467.409 210.175 469.287 206.586 466.068 202.962L462.546 199.943L468.583 195.918C469.421 194.24 470.092 190.718 468.583 188.369C467.074 186.021 463.049 182.029 459.025 184.847H455.504V182.834L464.055 177.802L471.098 172.267L476.128 169.751L480.655 167.738C480.655 167.738 483.674 167.738 485.686 165.725C487.698 163.712 491.018 156.969 482.164 156.164L476.128 157.171L466.068 161.196L456.51 166.228L437.395 175.789L418.28 186.86L416.267 180.318V175.789V172.267V167.738V161.196C414.591 157.674 409.929 151.032 404.698 152.642V157.171V165.725V167.738L403.189 169.751L402.686 181.325V188.369L401.176 198.434L399.164 221.078L399.667 232.148L397.655 243.219L393.128 258.315L386.589 321.719L380.552 313.668C371.939 278.128 359.408 254.641 344.334 221.078C338.968 213.53 329.746 202.862 317.673 198.434C299.732 194.24 283.065 188.369 265.358 188.369H236.182C261.541 166.625 265.358 130.679 265.358 97.7921C266.532 81.1862 252.279 18.0526 218.073 4.19567C197.784 -4.02338 142.417 -0.131904 123.503 34.8913C117.299 53.1745 106.3 124.563 128.031 157.171C132.725 172.267 155.395 189.577 128.031 208.498C111.263 212.859 75.3128 225.909 65.6546 243.219C60.6243 248.754 51.1673 262.844 53.5819 274.921L55.0909 292.03L52.0728 305.617L40 360.466C53.4142 378.917 72.697 404.245 116.964 428.902C133.061 436.45 174.812 458.088 236.182 454.063C263.346 452.553 321.094 441.986 366.97 399.716C383.906 385.291 416.267 354.931 429.346 304.61Z" fill="#219EBC"/>
<rect x="51.7776" y="335.971" width="133.861" height="36.2376" rx="18.1188" transform="rotate(14.218 51.7776 335.971)" fill="#D18CFF"/>
<rect x="51.7776" y="335.971" width="133.861" height="36.2376" rx="18.1188" transform="rotate(14.218 51.7776 335.971)" stroke="white"/>
<path d="M78.3631 364.728L73.8497 363.585L72.5162 365.59L70.6705 365.123L77.2676 355.306L79.3149 355.825L80.4417 367.599L78.5805 367.127L78.3631 364.728ZM78.2322 363.16L77.7489 357.706L74.7115 362.268L78.2322 363.16ZM88.6333 360.431C89.3054 360.601 89.8698 360.893 90.3264 361.306C90.7933 361.721 91.1073 362.241 91.2683 362.865C91.4293 363.489 91.4116 364.188 91.2151 364.964L89.9379 370.005L88.1853 369.561L89.3956 364.784C89.5895 364.018 89.5462 363.386 89.2658 362.886C88.9881 362.375 88.5183 362.036 87.8565 361.868C87.1948 361.701 86.615 361.774 86.1173 362.088C85.6326 362.394 85.2933 362.93 85.0994 363.695L83.889 368.472L82.1209 368.024L84.2862 359.478L86.0543 359.926L85.8068 360.903C86.1854 360.625 86.6219 360.444 87.1162 360.36C87.621 360.279 88.1267 360.303 88.6333 360.431ZM95.545 361.126C95.2245 361.045 94.9831 360.868 94.821 360.596C94.6589 360.324 94.6184 360.027 94.6997 359.707C94.7809 359.386 94.9576 359.145 95.2297 358.983C95.5019 358.821 95.7982 358.78 96.1188 358.861C96.429 358.94 96.6651 359.115 96.8272 359.388C96.9894 359.66 97.0298 359.956 96.9486 360.277C96.8674 360.597 96.6907 360.838 96.4185 361.001C96.1464 361.163 95.8552 361.204 95.545 361.126ZM96.1267 362.478L93.9614 371.024L92.1932 370.576L94.3586 362.03L96.1267 362.478ZM108.829 365.548C109.501 365.718 110.065 366.01 110.522 366.423C110.989 366.838 111.302 367.358 111.464 367.982C111.635 368.608 111.622 369.309 111.426 370.085L110.149 375.126L108.396 374.681L109.606 369.904C109.8 369.139 109.757 368.507 109.477 368.006C109.199 367.496 108.729 367.157 108.067 366.989C107.406 366.821 106.826 366.895 106.328 367.209C105.843 367.515 105.504 368.051 105.31 368.816L104.1 373.593L102.347 373.149L103.558 368.372C103.751 367.607 103.708 366.974 103.428 366.474C103.15 365.963 102.68 365.624 102.018 365.456C101.357 365.289 100.777 365.362 100.279 365.676C99.7944 365.982 99.4551 366.518 99.2613 367.283L98.0509 372.06L96.2828 371.612L98.4481 363.066L100.216 363.514L99.9686 364.491C100.347 364.213 100.784 364.032 101.278 363.948C101.773 363.865 102.273 363.887 102.78 364.015C103.462 364.188 104.036 364.488 104.5 364.913C104.964 365.339 105.272 365.863 105.422 366.484C105.812 366.032 106.319 365.726 106.943 365.565C107.569 365.394 108.198 365.388 108.829 365.548ZM112.902 371.235C113.119 370.376 113.487 369.661 114.007 369.088C114.536 368.518 115.152 368.129 115.854 367.922C116.568 367.707 117.298 367.694 118.042 367.882C118.714 368.053 119.265 368.335 119.693 368.73C120.134 369.117 120.455 369.545 120.655 370.013L120.969 368.773L122.753 369.225L120.588 377.771L118.804 377.319L119.126 376.047C118.724 376.374 118.231 376.607 117.646 376.744C117.061 376.882 116.437 376.867 115.775 376.7C115.041 376.514 114.416 376.157 113.901 375.631C113.387 375.093 113.035 374.443 112.843 373.679C112.665 372.908 112.684 372.093 112.902 371.235ZM119.889 373.038C120.038 372.448 120.044 371.905 119.906 371.408C119.778 370.914 119.546 370.503 119.211 370.176C118.876 369.849 118.481 369.628 118.026 369.512C117.571 369.397 117.118 369.403 116.667 369.531C116.219 369.649 115.816 369.893 115.458 370.265C115.113 370.628 114.866 371.105 114.716 371.694C114.567 372.284 114.555 372.831 114.68 373.336C114.816 373.843 115.05 374.266 115.382 374.603C115.728 374.933 116.123 375.154 116.568 375.266C117.023 375.382 117.475 375.375 117.926 375.247C118.376 375.12 118.776 374.869 119.123 374.495C119.484 374.113 119.739 373.627 119.889 373.038ZM126.85 377.921C127.874 378.181 128.665 377.902 129.224 377.087L131.132 377.57C130.705 378.298 130.133 378.841 129.415 379.198C128.71 379.548 127.908 379.653 127.008 379.513L126.847 380.149C127.447 380.301 127.897 380.563 128.199 380.937C128.498 381.321 128.582 381.771 128.451 382.288C128.32 382.805 128.03 383.166 127.582 383.372C127.131 383.588 126.621 383.624 126.053 383.48L124.005 382.961L124.288 381.844L125.979 382.273C126.268 382.346 126.496 382.36 126.662 382.314C126.827 382.267 126.938 382.136 126.993 381.919C127.048 381.702 127.013 381.533 126.89 381.414C126.766 381.295 126.559 381.198 126.27 381.125L125.417 380.909L125.849 379.203C125.167 378.942 124.605 378.552 124.165 378.033C123.726 377.504 123.436 376.891 123.293 376.195C123.164 375.491 123.201 374.735 123.405 373.929C123.628 373.05 123.999 372.324 124.518 371.752C125.05 371.171 125.678 370.78 126.4 370.578C127.123 370.376 127.892 370.378 128.709 370.585C129.743 370.847 130.533 371.311 131.08 371.978C131.639 372.637 131.922 373.451 131.929 374.422L130.022 373.938C129.974 373.475 129.81 373.081 129.529 372.757C129.248 372.433 128.849 372.205 128.332 372.074C127.608 371.891 126.963 372.002 126.398 372.409C125.846 372.809 125.453 373.468 125.22 374.389C124.987 375.309 125.017 376.081 125.31 376.706C125.613 377.333 126.126 377.738 126.85 377.921ZM132.713 376.254C132.931 375.396 133.299 374.681 133.818 374.108C134.348 373.538 134.963 373.149 135.665 372.942C136.38 372.727 137.109 372.714 137.854 372.902C138.526 373.072 139.076 373.355 139.504 373.75C139.945 374.136 140.266 374.564 140.466 375.033L140.781 373.792L142.565 374.244L140.399 382.79L138.616 382.338L138.938 381.066C138.536 381.394 138.042 381.626 137.457 381.764C136.872 381.902 136.249 381.887 135.587 381.719C134.853 381.533 134.228 381.177 133.712 380.65C133.199 380.113 132.846 379.463 132.655 378.699C132.476 377.927 132.496 377.112 132.713 376.254ZM139.7 378.058C139.85 377.468 139.855 376.925 139.717 376.428C139.589 375.933 139.358 375.522 139.022 375.195C138.687 374.868 138.292 374.647 137.837 374.532C137.382 374.417 136.929 374.423 136.479 374.551C136.031 374.669 135.628 374.913 135.27 375.284C134.924 375.648 134.677 376.125 134.528 376.714C134.378 377.303 134.366 377.851 134.491 378.355C134.627 378.863 134.861 379.285 135.194 379.623C135.539 379.952 135.934 380.173 136.379 380.286C136.834 380.401 137.287 380.395 137.737 380.267C138.188 380.139 138.587 379.888 138.935 379.514C139.296 379.133 139.551 378.647 139.7 378.058ZM136.166 371.682C136.4 371.103 136.711 370.703 137.097 370.482C137.486 370.251 137.913 370.194 138.378 370.312C138.575 370.361 138.737 370.436 138.866 370.534C138.995 370.633 139.148 370.771 139.323 370.947C139.452 371.09 139.562 371.2 139.652 371.278C139.752 371.359 139.87 371.416 140.004 371.45C140.18 371.494 140.338 371.479 140.478 371.405C140.631 371.323 140.75 371.177 140.836 370.967L141.829 371.219C141.594 371.798 141.283 372.203 140.894 372.435C140.508 372.656 140.082 372.707 139.617 372.59C139.42 372.54 139.252 372.464 139.113 372.363C138.976 372.251 138.83 372.11 138.676 371.939C138.518 371.778 138.393 371.663 138.3 371.596C138.22 371.521 138.118 371.467 137.994 371.436C137.819 371.391 137.654 371.41 137.501 371.492C137.359 371.577 137.244 371.724 137.158 371.934L136.166 371.682ZM146.393 384.457C145.587 384.253 144.903 383.887 144.344 383.361C143.787 382.823 143.406 382.177 143.201 381.42C142.999 380.654 143.01 379.831 143.232 378.953C143.452 378.084 143.839 377.362 144.392 376.787C144.945 376.212 145.598 375.827 146.351 375.633C147.105 375.439 147.89 375.445 148.707 375.652C149.524 375.859 150.217 376.227 150.787 376.757C151.357 377.286 151.748 377.936 151.961 378.705C152.173 379.474 152.169 380.293 151.949 381.161C151.729 382.03 151.337 382.75 150.774 383.323C150.211 383.895 149.541 384.281 148.764 384.481C148 384.672 147.21 384.664 146.393 384.457ZM146.782 382.922C147.237 383.037 147.688 383.036 148.136 382.919C148.595 382.804 149.003 382.56 149.361 382.189C149.719 381.818 149.977 381.322 150.134 380.701C150.291 380.081 150.305 379.529 150.174 379.044C150.047 378.55 149.814 378.144 149.476 377.828C149.138 377.511 148.742 377.295 148.287 377.18C147.832 377.064 147.38 377.065 146.932 377.183C146.495 377.303 146.107 377.552 145.77 377.928C145.435 378.295 145.189 378.788 145.031 379.408C144.798 380.329 144.85 381.101 145.187 381.726C145.537 382.342 146.069 382.741 146.782 382.922Z" fill="white"/>
<rect x="180.443" y="366.489" width="133.861" height="36.2376" rx="18.1188" transform="rotate(-13.1006 180.443 366.489)" fill="#2F2F2F"/>
<rect x="180.443" y="366.489" width="133.861" height="36.2376" rx="18.1188" transform="rotate(-13.1006 180.443 366.489)" stroke="white"/>
<path d="M217.215 382.181L211.895 378.31L213.023 383.157L211.246 383.57L208.726 372.74L210.502 372.326L211.652 377.266L214.71 371.347L216.938 370.829L213.494 377.347L219.537 381.641L217.215 382.181ZM227.929 374.94C228.004 375.262 228.051 375.558 228.07 375.828L221.51 377.354C221.721 378.028 222.104 378.519 222.658 378.829C223.211 379.138 223.821 379.215 224.486 379.06C225.441 378.838 226.024 378.281 226.232 377.389L228.149 376.943C228.073 377.793 227.751 378.552 227.184 379.221C226.625 379.877 225.841 380.322 224.834 380.556C224.013 380.747 223.233 380.737 222.494 380.526C221.763 380.302 221.133 379.901 220.604 379.323C220.083 378.732 219.72 377.995 219.515 377.112C219.309 376.229 219.306 375.414 219.504 374.667C219.711 373.907 220.094 373.27 220.653 372.757C221.223 372.241 221.929 371.885 222.77 371.689C223.581 371.501 224.344 371.509 225.06 371.715C225.776 371.921 226.385 372.304 226.888 372.866C227.389 373.418 227.736 374.109 227.929 374.94ZM225.944 374.811C225.782 374.159 225.426 373.689 224.877 373.4C224.328 373.112 223.716 373.046 223.04 373.203C222.428 373.346 221.949 373.665 221.604 374.162C221.257 374.648 221.12 375.233 221.191 375.917L225.944 374.811ZM236.457 368.652L234.127 382.5L232.288 382.928L233.062 378.346L227.715 370.686L229.694 370.226L233.632 376.209L234.618 369.08L236.457 368.652ZM250.658 362.981L249.111 374.759L247.054 375.237L240.451 365.357L242.352 364.914L247.658 373.175L248.788 363.417L250.658 362.981ZM253.305 363.532C252.983 363.607 252.688 363.561 252.419 363.393C252.15 363.226 251.978 362.981 251.903 362.659C251.828 362.337 251.874 362.041 252.041 361.772C252.209 361.503 252.454 361.332 252.776 361.257C253.087 361.184 253.378 361.231 253.647 361.399C253.915 361.566 254.087 361.811 254.162 362.133C254.237 362.455 254.191 362.751 254.024 363.02C253.856 363.289 253.617 363.459 253.305 363.532ZM254.443 364.466L256.441 373.053L254.664 373.466L252.666 364.88L254.443 364.466ZM261.923 371.925C261.247 372.082 260.612 372.104 260.016 371.991C259.428 371.865 258.93 371.63 258.521 371.287C258.111 370.934 257.834 370.5 257.693 369.985L259.532 369.557C259.647 369.914 259.89 370.18 260.26 370.357C260.638 370.521 261.065 370.547 261.543 370.436C262.042 370.32 262.405 370.137 262.631 369.887C262.866 369.625 262.948 369.343 262.878 369.041C262.803 368.719 262.591 368.517 262.243 368.433C261.906 368.348 261.383 368.289 260.675 368.256C259.989 368.23 259.425 368.18 258.981 368.108C258.537 368.036 258.125 367.864 257.744 367.591C257.373 367.316 257.122 366.898 256.992 366.337C256.885 365.88 256.924 365.433 257.107 364.996C257.287 364.549 257.602 364.158 258.05 363.824C258.508 363.487 259.064 363.243 259.719 363.091C260.695 362.863 261.538 362.93 262.246 363.291C262.962 363.639 263.44 364.234 263.68 365.076L261.903 365.49C261.783 365.113 261.556 364.842 261.222 364.679C260.888 364.516 260.482 364.49 260.005 364.601C259.537 364.71 259.199 364.882 258.991 365.116C258.783 365.351 258.712 365.614 258.78 365.905C258.833 366.133 258.961 366.306 259.164 366.423C259.366 366.54 259.598 366.618 259.858 366.656C260.117 366.683 260.495 366.71 260.994 366.736C261.656 366.758 262.205 366.81 262.641 366.895C263.085 366.967 263.491 367.135 263.859 367.4C264.228 367.665 264.481 368.071 264.62 368.62C264.733 369.108 264.7 369.576 264.519 370.023C264.338 370.47 264.024 370.861 263.576 371.195C263.139 371.527 262.587 371.77 261.923 371.925ZM272.876 360.177L274.874 368.763L273.097 369.177L272.862 368.164C272.663 368.582 272.36 368.948 271.951 369.263C271.55 369.564 271.095 369.774 270.586 369.892C269.911 370.05 269.271 370.051 268.665 369.896C268.07 369.739 267.552 369.421 267.113 368.943C266.683 368.463 266.378 367.833 266.196 367.053L265.021 362.004L266.782 361.595L267.896 366.379C268.075 367.148 268.405 367.695 268.886 368.021C269.364 368.337 269.936 368.417 270.601 368.263C271.266 368.108 271.744 367.783 272.034 367.289C272.332 366.781 272.391 366.143 272.212 365.374L271.099 360.59L272.876 360.177ZM275.617 364.023C275.417 363.161 275.416 362.356 275.614 361.609C275.823 360.86 276.192 360.232 276.72 359.725C277.256 359.206 277.898 358.86 278.646 358.686C279.322 358.529 279.94 358.527 280.502 358.681C281.071 358.822 281.553 359.055 281.946 359.38L281.656 358.133L283.448 357.716L285.446 366.303L283.654 366.72L283.356 365.442C283.149 365.917 282.818 366.35 282.361 366.741C281.904 367.132 281.344 367.405 280.679 367.56C279.941 367.732 279.222 367.702 278.522 367.471C277.82 367.229 277.208 366.813 276.688 366.222C276.175 365.618 275.818 364.886 275.617 364.023ZM282.653 362.419C282.515 361.827 282.271 361.341 281.92 360.963C281.579 360.582 281.185 360.324 280.737 360.187C280.289 360.05 279.837 360.035 279.38 360.142C278.922 360.248 278.523 360.461 278.181 360.782C277.837 361.092 277.592 361.494 277.444 361.988C277.304 362.47 277.303 363.007 277.441 363.599C277.579 364.191 277.819 364.683 278.162 365.074C278.515 365.463 278.917 365.73 279.367 365.878C279.826 366.012 280.278 366.027 280.725 365.923C281.182 365.817 281.581 365.603 281.923 365.283C282.265 364.962 282.504 364.556 282.642 364.064C282.787 363.559 282.791 363.011 282.653 362.419ZM286.872 353.815L289.556 365.346L287.779 365.76L285.096 354.228L286.872 353.815Z" fill="white"/>
<rect x="292.522" y="381.202" width="94.025" height="36.2376" rx="18.1188" transform="rotate(-23.9271 292.522 381.202)" fill="#FB8500"/>
<rect x="292.522" y="381.202" width="94.025" height="36.2376" rx="18.1188" transform="rotate(-23.9271 292.522 381.202)" stroke="white"/>
<path d="M329.811 381.954C330.04 382.471 330.134 383.013 330.094 383.579C330.054 384.145 329.83 384.694 329.424 385.224C329.013 385.745 328.388 386.191 327.55 386.563L325.707 387.381L327.537 391.505L325.87 392.245L321.36 382.081L324.87 380.523C325.65 380.177 326.368 380.022 327.026 380.057C327.689 380.078 328.253 380.259 328.72 380.6C329.196 380.937 329.56 381.389 329.811 381.954ZM326.946 385.203C327.58 384.922 327.99 384.571 328.177 384.15C328.359 383.719 328.333 383.24 328.1 382.713C327.606 381.602 326.731 381.325 325.473 381.883L323.63 382.701L325.104 386.021L326.946 385.203ZM338.121 386.966C337.361 387.304 336.598 387.438 335.832 387.37C335.062 387.291 334.363 387.018 333.735 386.549C333.103 386.071 332.603 385.418 332.235 384.589C331.872 383.77 331.73 382.964 331.81 382.17C331.889 381.376 332.165 380.67 332.638 380.052C333.11 379.434 333.732 378.954 334.502 378.612C335.272 378.271 336.045 378.132 336.821 378.196C337.596 378.261 338.305 378.53 338.947 379.003C339.589 379.477 340.091 380.123 340.455 380.942C340.818 381.761 340.955 382.57 340.866 383.368C340.777 384.166 340.488 384.884 340 385.52C339.518 386.143 338.892 386.625 338.121 386.966ZM337.479 385.519C337.908 385.328 338.262 385.048 338.542 384.679C338.831 384.306 339.002 383.862 339.054 383.349C339.107 382.836 339.003 382.287 338.744 381.702C338.484 381.117 338.153 380.674 337.752 380.374C337.346 380.064 336.912 379.889 336.451 379.848C335.989 379.808 335.544 379.883 335.115 380.073C334.686 380.264 334.332 380.543 334.052 380.912C333.782 381.277 333.631 381.712 333.598 382.217C333.561 382.712 333.672 383.252 333.932 383.837C334.317 384.704 334.835 385.28 335.486 385.563C336.142 385.832 336.806 385.817 337.479 385.519ZM346.877 383.081C346.244 383.363 345.623 383.504 345.017 383.504C344.416 383.491 343.883 383.354 343.417 383.094C342.947 382.824 342.594 382.449 342.358 381.971L344.084 381.205C344.265 381.533 344.553 381.749 344.95 381.854C345.351 381.944 345.777 381.889 346.225 381.69C346.693 381.483 347.015 381.235 347.191 380.947C347.372 380.645 347.399 380.352 347.274 380.07C347.14 379.767 346.894 379.608 346.537 379.592C346.189 379.571 345.664 379.611 344.962 379.712C344.284 379.815 343.721 379.873 343.271 379.885C342.822 379.898 342.384 379.806 341.959 379.61C341.543 379.409 341.218 379.046 340.985 378.519C340.794 378.09 340.748 377.644 340.846 377.181C340.939 376.707 341.174 376.264 341.552 375.852C341.938 375.435 342.439 375.091 343.053 374.818C343.97 374.411 344.81 374.319 345.573 374.54C346.342 374.748 346.923 375.242 347.317 376.025L345.65 376.764C345.46 376.417 345.187 376.194 344.828 376.096C344.47 375.998 344.066 376.049 343.618 376.248C343.179 376.443 342.879 376.675 342.719 376.944C342.559 377.214 342.539 377.485 342.66 377.758C342.755 377.973 342.913 378.119 343.134 378.196C343.355 378.273 343.597 378.305 343.86 378.294C344.119 378.272 344.496 378.227 344.991 378.159C345.645 378.056 346.194 378.005 346.638 378.006C347.088 377.993 347.518 378.082 347.93 378.273C348.341 378.464 348.666 378.816 348.905 379.328C349.109 379.787 349.164 380.252 349.07 380.725C348.977 381.199 348.742 381.642 348.364 382.054C347.997 382.462 347.501 382.804 346.877 383.081ZM350.679 373.22L352.659 377.68C352.793 377.983 352.958 378.172 353.155 378.248C353.358 378.31 353.63 378.265 353.971 378.113L354.995 377.659L355.611 379.049L354.295 379.633C353.544 379.966 352.891 380.045 352.336 379.872C351.78 379.698 351.327 379.217 350.977 378.427L348.997 373.966L348.047 374.388L347.443 373.028L348.394 372.606L347.505 370.602L349.187 369.856L350.076 371.86L352.036 370.99L352.639 372.35L350.679 373.22ZM360.131 377.201C359.497 377.482 358.877 377.623 358.271 377.623C357.67 377.61 357.136 377.473 356.671 377.213C356.201 376.943 355.848 376.569 355.612 376.09L357.338 375.324C357.519 375.652 357.807 375.869 358.204 375.973C358.605 376.063 359.03 376.009 359.479 375.81C359.947 375.602 360.269 375.354 360.444 375.066C360.625 374.764 360.653 374.472 360.528 374.189C360.394 373.887 360.148 373.727 359.791 373.711C359.443 373.69 358.918 373.73 358.216 373.832C357.538 373.934 356.974 373.992 356.525 374.004C356.076 374.017 355.638 373.925 355.213 373.729C354.797 373.528 354.472 373.165 354.238 372.638C354.048 372.209 354.002 371.763 354.1 371.3C354.193 370.826 354.428 370.384 354.805 369.971C355.192 369.555 355.693 369.21 356.307 368.937C357.224 368.531 358.064 368.438 358.827 368.659C359.596 368.867 360.177 369.362 360.571 370.144L358.904 370.884C358.714 370.536 358.44 370.313 358.082 370.215C357.724 370.118 357.32 370.168 356.872 370.367C356.433 370.562 356.133 370.794 355.973 371.064C355.812 371.333 355.793 371.605 355.914 371.878C356.009 372.092 356.167 372.238 356.388 372.315C356.609 372.392 356.851 372.424 357.114 372.413C357.373 372.391 357.75 372.347 358.245 372.279C358.899 372.175 359.448 372.124 359.892 372.125C360.342 372.113 360.772 372.202 361.184 372.393C361.595 372.583 361.92 372.935 362.159 373.447C362.363 373.906 362.418 374.371 362.324 374.845C362.231 375.318 361.995 375.761 361.618 376.173C361.251 376.581 360.755 376.924 360.131 377.201Z" fill="white"/>
<rect x="80.0872" y="305.723" width="153.082" height="36.2376" rx="18.1188" transform="rotate(6.42129 80.0872 305.723)" fill="#FFB703"/>
<rect x="80.0872" y="305.723" width="153.082" height="36.2376" rx="18.1188" transform="rotate(6.42129 80.0872 305.723)" stroke="white"/>
<path d="M103.493 326.506C103.615 325.425 103.973 324.483 104.568 323.681C105.173 322.879 105.932 322.289 106.845 321.908C107.769 321.518 108.745 321.381 109.773 321.497C110.949 321.629 111.961 322.038 112.807 322.724C113.664 323.4 114.24 324.292 114.534 325.398L112.356 325.153C112.136 324.538 111.787 324.058 111.31 323.715C110.834 323.371 110.262 323.162 109.594 323.087C108.863 323.005 108.192 323.096 107.583 323.36C106.973 323.624 106.47 324.045 106.072 324.623C105.685 325.202 105.445 325.899 105.354 326.716C105.262 327.532 105.34 328.265 105.589 328.916C105.848 329.567 106.245 330.095 106.779 330.499C107.315 330.892 107.948 331.129 108.68 331.212C109.347 331.287 109.952 331.21 110.493 330.981C111.034 330.752 111.48 330.362 111.832 329.812L114.01 330.057C113.477 331.07 112.718 331.811 111.731 332.28C110.755 332.75 109.679 332.918 108.502 332.786C107.464 332.669 106.542 332.324 105.737 331.75C104.933 331.166 104.325 330.416 103.913 329.5C103.512 328.585 103.372 327.587 103.493 326.506ZM115.664 329.019C115.763 328.139 116.03 327.38 116.467 326.743C116.915 326.106 117.472 325.637 118.139 325.337C118.818 325.027 119.539 324.915 120.302 325.001C120.991 325.078 121.574 325.283 122.052 325.616C122.542 325.94 122.918 326.32 123.18 326.757L123.323 325.485L125.151 325.691L124.165 334.452L122.337 334.246L122.484 332.942C122.13 333.321 121.672 333.619 121.111 333.835C120.55 334.05 119.931 334.12 119.252 334.044C118.5 333.959 117.832 333.691 117.25 333.239C116.668 332.776 116.231 332.18 115.938 331.449C115.656 330.709 115.565 329.899 115.664 329.019ZM122.831 329.858C122.899 329.254 122.831 328.715 122.626 328.241C122.433 327.768 122.147 327.393 121.771 327.114C121.394 326.836 120.973 326.67 120.507 326.618C120.04 326.565 119.592 326.633 119.163 326.821C118.736 326.998 118.369 327.295 118.065 327.711C117.772 328.119 117.592 328.624 117.524 329.228C117.456 329.833 117.518 330.376 117.711 330.86C117.914 331.344 118.203 331.731 118.578 332.02C118.965 332.3 119.387 332.465 119.843 332.516C120.309 332.569 120.757 332.501 121.186 332.313C121.615 332.125 121.976 331.823 122.27 331.405C122.576 330.978 122.763 330.462 122.831 329.858ZM138.153 327.01C138.842 327.087 139.441 327.299 139.949 327.647C140.468 327.995 140.85 328.467 141.094 329.063C141.349 329.661 141.431 330.357 141.342 331.152L140.76 336.32L138.964 336.117L139.515 331.22C139.603 330.436 139.474 329.815 139.129 329.357C138.784 328.889 138.273 328.617 137.594 328.541C136.916 328.464 136.352 328.616 135.901 328.994C135.462 329.363 135.199 329.94 135.111 330.725L134.559 335.622L132.763 335.42L133.314 330.522C133.402 329.738 133.274 329.117 132.928 328.66C132.583 328.191 132.072 327.919 131.394 327.843C130.715 327.767 130.151 327.918 129.7 328.296C129.262 328.666 128.998 329.242 128.91 330.027L128.359 334.924L126.546 334.72L127.532 325.959L129.345 326.163L129.232 327.165C129.569 326.838 129.977 326.599 130.456 326.449C130.934 326.299 131.433 326.253 131.952 326.312C132.652 326.391 133.261 326.609 133.778 326.968C134.296 327.327 134.672 327.804 134.905 328.399C135.23 327.899 135.691 327.527 136.287 327.283C136.884 327.028 137.507 326.937 138.153 327.01ZM145.72 329.31C146.073 328.942 146.53 328.65 147.091 328.434C147.652 328.218 148.266 328.148 148.934 328.223C149.697 328.309 150.37 328.578 150.953 329.03C151.547 329.472 151.986 330.053 152.27 330.772C152.554 331.491 152.647 332.29 152.547 333.17C152.448 334.05 152.179 334.819 151.74 335.478C151.302 336.127 150.743 336.611 150.063 336.932C149.395 337.243 148.679 337.356 147.916 337.27C147.248 337.195 146.669 336.995 146.18 336.672C145.692 336.338 145.306 335.951 145.022 335.511L144.41 340.949L142.598 340.745L144.053 327.819L145.865 328.023L145.72 329.31ZM150.703 332.963C150.771 332.358 150.702 331.825 150.497 331.361C150.303 330.889 150.012 330.518 149.624 330.249C149.247 329.97 148.826 329.805 148.359 329.752C147.904 329.701 147.456 329.769 147.016 329.955C146.587 330.143 146.221 330.445 145.916 330.862C145.622 331.28 145.441 331.791 145.373 332.395C145.305 332.999 145.367 333.543 145.56 334.026C145.764 334.5 146.055 334.876 146.431 335.155C146.818 335.434 147.24 335.6 147.696 335.651C148.162 335.704 148.61 335.636 149.039 335.448C149.48 335.251 149.848 334.938 150.143 334.51C150.448 334.082 150.635 333.567 150.703 332.963ZM153.736 333.304C153.835 332.424 154.103 331.665 154.539 331.027C154.987 330.391 155.544 329.922 156.211 329.622C156.89 329.312 157.611 329.2 158.374 329.285C159.063 329.363 159.647 329.568 160.124 329.901C160.614 330.224 160.99 330.605 161.252 331.042L161.395 329.77L163.223 329.976L162.237 338.737L160.409 338.531L160.556 337.227C160.202 337.606 159.744 337.903 159.183 338.119C158.622 338.335 158.003 338.405 157.324 338.329C156.572 338.244 155.904 337.976 155.322 337.524C154.74 337.061 154.303 336.464 154.01 335.734C153.728 334.994 153.637 334.184 153.736 333.304ZM160.903 334.143C160.971 333.539 160.903 333 160.698 332.526C160.505 332.053 160.22 331.677 159.843 331.399C159.467 331.12 159.045 330.955 158.579 330.902C158.112 330.85 157.665 330.918 157.236 331.105C156.808 331.283 156.442 331.58 156.137 331.996C155.844 332.403 155.664 332.909 155.596 333.513C155.528 334.117 155.59 334.661 155.783 335.144C155.986 335.629 156.275 336.016 156.65 336.305C157.038 336.584 157.459 336.75 157.915 336.801C158.381 336.854 158.829 336.786 159.258 336.598C159.687 336.41 160.048 336.107 160.342 335.69C160.648 335.263 160.835 334.747 160.903 334.143ZM170.04 330.598C170.729 330.676 171.328 330.888 171.836 331.235C172.355 331.583 172.737 332.056 172.981 332.652C173.225 333.249 173.303 333.944 173.213 334.739L172.632 339.907L170.835 339.704L171.386 334.807C171.474 334.023 171.346 333.402 171 332.944C170.656 332.476 170.144 332.204 169.466 332.128C168.787 332.051 168.223 332.203 167.772 332.581C167.334 332.95 167.07 333.527 166.982 334.312L166.431 339.209L164.618 339.005L165.604 330.244L167.417 330.448L167.304 331.45C167.641 331.123 168.049 330.884 168.528 330.734C169.017 330.585 169.521 330.54 170.04 330.598ZM180.477 331.773C181.145 331.848 181.722 332.058 182.21 332.403C182.707 332.749 183.073 333.219 183.307 333.814C183.551 334.411 183.628 335.106 183.539 335.901L182.957 341.069L181.16 340.866L181.712 335.969C181.8 335.185 181.671 334.564 181.325 334.106C180.981 333.638 180.47 333.366 179.791 333.29C179.113 333.213 178.548 333.365 178.098 333.743C177.659 334.112 177.396 334.689 177.307 335.474L176.756 340.371L174.944 340.167L176.268 328.401L178.08 328.605L177.628 332.628C177.977 332.291 178.396 332.049 178.885 331.9C179.385 331.752 179.915 331.71 180.477 331.773ZM185.162 336.841C185.261 335.961 185.529 335.202 185.966 334.564C186.413 333.928 186.971 333.459 187.638 333.158C188.317 332.848 189.038 332.736 189.801 332.822C190.49 332.9 191.073 333.105 191.551 333.438C192.041 333.761 192.416 334.142 192.678 334.579L192.822 333.307L194.65 333.513L193.664 342.274L191.836 342.068L191.982 340.764C191.628 341.143 191.171 341.44 190.61 341.656C190.049 341.872 189.429 341.942 188.751 341.866C187.998 341.781 187.331 341.513 186.748 341.061C186.167 340.598 185.73 340.001 185.436 339.271C185.155 338.53 185.063 337.721 185.162 336.841ZM192.329 337.68C192.397 337.075 192.329 336.536 192.125 336.063C191.931 335.59 191.646 335.214 191.27 334.936C190.893 334.657 190.472 334.492 190.005 334.439C189.539 334.387 189.091 334.455 188.662 334.642C188.234 334.82 187.868 335.117 187.564 335.533C187.271 335.94 187.091 336.446 187.023 337.05C186.955 337.654 187.017 338.198 187.209 338.681C187.412 339.166 187.702 339.552 188.077 339.842C188.464 340.121 188.886 340.287 189.341 340.338C189.808 340.391 190.256 340.323 190.685 340.135C191.114 339.947 191.475 339.644 191.769 339.227C192.075 338.799 192.261 338.284 192.329 337.68ZM199.209 343.043C198.52 342.965 197.913 342.773 197.39 342.468C196.878 342.152 196.486 341.765 196.216 341.305C195.947 340.835 195.832 340.333 195.87 339.801L197.746 340.012C197.736 340.387 197.876 340.719 198.165 341.009C198.467 341.29 198.861 341.458 199.349 341.513C199.857 341.57 200.26 341.519 200.557 341.359C200.866 341.19 201.038 340.951 201.073 340.644C201.11 340.315 200.978 340.054 200.678 339.859C200.388 339.665 199.915 339.435 199.258 339.168C198.621 338.914 198.106 338.679 197.711 338.462C197.317 338.246 196.986 337.946 196.718 337.562C196.461 337.178 196.364 336.701 196.428 336.128C196.481 335.662 196.666 335.253 196.985 334.903C197.305 334.542 197.732 334.278 198.265 334.113C198.81 333.949 199.416 333.904 200.084 333.98C201.08 334.092 201.852 334.436 202.399 335.013C202.957 335.58 203.209 336.301 203.154 337.175L201.341 336.971C201.353 336.575 201.23 336.245 200.97 335.979C200.71 335.714 200.336 335.554 199.848 335.499C199.371 335.445 198.995 335.494 198.721 335.646C198.446 335.797 198.292 336.021 198.259 336.318C198.232 336.551 198.295 336.757 198.447 336.935C198.599 337.113 198.791 337.264 199.024 337.386C199.258 337.499 199.606 337.651 200.068 337.842C200.685 338.083 201.184 338.317 201.567 338.542C201.961 338.758 202.287 339.053 202.546 339.425C202.805 339.798 202.908 340.266 202.855 340.828C202.799 341.327 202.611 341.756 202.291 342.118C201.972 342.479 201.545 342.742 201.011 342.907C200.488 343.074 199.887 343.119 199.209 343.043Z" fill="#2F2F2F"/>
<rect x="130.5" y="402.057" width="178" height="36" rx="18" fill="#023047"/>
<rect x="130.5" y="402.057" width="178" height="36" rx="18" stroke="white"/>
<path d="M158.487 415.909V419.173H162.327V420.661H158.487V424.069H162.807V425.557H156.663V414.421H162.807V415.909H158.487ZM164.445 421.109C164.445 420.224 164.627 419.44 164.989 418.757C165.363 418.075 165.864 417.547 166.493 417.173C167.133 416.789 167.843 416.597 168.621 416.597C169.197 416.597 169.763 416.725 170.317 416.981C170.883 417.227 171.331 417.557 171.661 417.973V413.717H173.501V425.557H171.661V424.229C171.363 424.656 170.947 425.008 170.413 425.285C169.891 425.563 169.288 425.701 168.605 425.701C167.837 425.701 167.133 425.509 166.493 425.125C165.864 424.731 165.363 424.187 164.989 423.493C164.627 422.789 164.445 421.995 164.445 421.109ZM171.661 421.141C171.661 420.533 171.533 420.005 171.277 419.557C171.032 419.109 170.707 418.768 170.301 418.533C169.896 418.299 169.459 418.181 168.989 418.181C168.52 418.181 168.083 418.299 167.677 418.533C167.272 418.757 166.941 419.093 166.685 419.541C166.44 419.979 166.317 420.501 166.317 421.109C166.317 421.717 166.44 422.251 166.685 422.709C166.941 423.168 167.272 423.52 167.677 423.765C168.093 424 168.531 424.117 168.989 424.117C169.459 424.117 169.896 424 170.301 423.765C170.707 423.531 171.032 423.189 171.277 422.741C171.533 422.283 171.661 421.749 171.661 421.141ZM176.825 415.573C176.494 415.573 176.217 415.461 175.993 415.237C175.769 415.013 175.657 414.736 175.657 414.405C175.657 414.075 175.769 413.797 175.993 413.573C176.217 413.349 176.494 413.237 176.825 413.237C177.145 413.237 177.417 413.349 177.641 413.573C177.865 413.797 177.977 414.075 177.977 414.405C177.977 414.736 177.865 415.013 177.641 415.237C177.417 415.461 177.145 415.573 176.825 415.573ZM177.721 416.741V425.557H175.897V416.741H177.721ZM183.828 424.165C184.884 424.165 185.582 423.701 185.924 422.773H187.892C187.657 423.584 187.236 424.251 186.628 424.773C186.03 425.285 185.278 425.584 184.372 425.669V426.325C184.99 426.325 185.492 426.469 185.876 426.757C186.26 427.056 186.452 427.472 186.452 428.005C186.452 428.539 186.26 428.96 185.876 429.269C185.492 429.589 185.006 429.749 184.42 429.749H182.308V428.597H184.052C184.35 428.597 184.574 428.555 184.724 428.469C184.873 428.384 184.948 428.229 184.948 428.005C184.948 427.781 184.873 427.627 184.724 427.541C184.574 427.456 184.35 427.413 184.052 427.413H183.172V425.653C182.446 425.568 181.806 425.328 181.252 424.933C180.697 424.528 180.265 424.005 179.956 423.365C179.657 422.715 179.508 421.973 179.508 421.141C179.508 420.235 179.689 419.44 180.052 418.757C180.425 418.064 180.937 417.531 181.588 417.157C182.238 416.784 182.985 416.597 183.828 416.597C184.894 416.597 185.774 416.853 186.468 417.365C187.172 417.867 187.646 418.587 187.892 419.525H185.924C185.764 419.088 185.508 418.747 185.156 418.501C184.804 418.256 184.361 418.133 183.828 418.133C183.081 418.133 182.484 418.4 182.036 418.933C181.598 419.456 181.38 420.192 181.38 421.141C181.38 422.091 181.598 422.832 182.036 423.365C182.484 423.899 183.081 424.165 183.828 424.165ZM189.102 421.109C189.102 420.224 189.283 419.44 189.646 418.757C190.019 418.075 190.52 417.547 191.15 417.173C191.79 416.789 192.494 416.597 193.262 416.597C193.955 416.597 194.558 416.736 195.07 417.013C195.592 417.28 196.008 417.616 196.318 418.021V416.741H198.158V425.557H196.318V424.245C196.008 424.661 195.587 425.008 195.054 425.285C194.52 425.563 193.912 425.701 193.23 425.701C192.472 425.701 191.779 425.509 191.15 425.125C190.52 424.731 190.019 424.187 189.646 423.493C189.283 422.789 189.102 421.995 189.102 421.109ZM196.318 421.141C196.318 420.533 196.19 420.005 195.934 419.557C195.688 419.109 195.363 418.768 194.958 418.533C194.552 418.299 194.115 418.181 193.646 418.181C193.176 418.181 192.739 418.299 192.334 418.533C191.928 418.757 191.598 419.093 191.342 419.541C191.096 419.979 190.974 420.501 190.974 421.109C190.974 421.717 191.096 422.251 191.342 422.709C191.598 423.168 191.928 423.52 192.334 423.765C192.75 424 193.187 424.117 193.646 424.117C194.115 424.117 194.552 424 194.958 423.765C195.363 423.531 195.688 423.189 195.934 422.741C196.19 422.283 196.318 421.749 196.318 421.141ZM191.326 415.829C191.411 415.211 191.614 414.747 191.934 414.437C192.254 414.117 192.654 413.957 193.134 413.957C193.336 413.957 193.512 413.989 193.662 414.053C193.811 414.117 193.992 414.213 194.206 414.341C194.366 414.448 194.499 414.528 194.606 414.581C194.723 414.635 194.851 414.661 194.99 414.661C195.171 414.661 195.32 414.608 195.438 414.501C195.566 414.384 195.646 414.213 195.678 413.989H196.702C196.616 414.608 196.414 415.077 196.094 415.397C195.774 415.707 195.374 415.861 194.894 415.861C194.691 415.861 194.51 415.829 194.35 415.765C194.19 415.691 194.014 415.589 193.822 415.461C193.63 415.344 193.48 415.264 193.374 415.221C193.278 415.168 193.166 415.141 193.038 415.141C192.856 415.141 192.702 415.2 192.574 415.317C192.456 415.435 192.382 415.605 192.35 415.829H191.326ZM204.377 425.701C203.545 425.701 202.793 425.515 202.121 425.141C201.449 424.757 200.921 424.224 200.537 423.541C200.153 422.848 199.961 422.048 199.961 421.141C199.961 420.245 200.159 419.451 200.553 418.757C200.948 418.064 201.487 417.531 202.169 417.157C202.852 416.784 203.615 416.597 204.457 416.597C205.3 416.597 206.063 416.784 206.745 417.157C207.428 417.531 207.967 418.064 208.361 418.757C208.756 419.451 208.953 420.245 208.953 421.141C208.953 422.037 208.751 422.832 208.345 423.525C207.94 424.219 207.385 424.757 206.681 425.141C205.988 425.515 205.22 425.701 204.377 425.701ZM204.377 424.117C204.847 424.117 205.284 424.005 205.689 423.781C206.105 423.557 206.441 423.221 206.697 422.773C206.953 422.325 207.081 421.781 207.081 421.141C207.081 420.501 206.959 419.963 206.713 419.525C206.468 419.077 206.143 418.741 205.737 418.517C205.332 418.293 204.895 418.181 204.425 418.181C203.956 418.181 203.519 418.293 203.113 418.517C202.719 418.741 202.404 419.077 202.169 419.525C201.935 419.963 201.817 420.501 201.817 421.141C201.817 422.091 202.057 422.827 202.537 423.349C203.028 423.861 203.641 424.117 204.377 424.117ZM214.305 421.109C214.305 420.224 214.486 419.44 214.849 418.757C215.222 418.075 215.723 417.547 216.353 417.173C216.993 416.789 217.702 416.597 218.481 416.597C219.057 416.597 219.622 416.725 220.177 416.981C220.742 417.227 221.19 417.557 221.521 417.973V413.717H223.361V425.557H221.521V424.229C221.222 424.656 220.806 425.008 220.273 425.285C219.75 425.563 219.147 425.701 218.465 425.701C217.697 425.701 216.993 425.509 216.353 425.125C215.723 424.731 215.222 424.187 214.849 423.493C214.486 422.789 214.305 421.995 214.305 421.109ZM221.521 421.141C221.521 420.533 221.393 420.005 221.137 419.557C220.891 419.109 220.566 418.768 220.161 418.533C219.755 418.299 219.318 418.181 218.849 418.181C218.379 418.181 217.942 418.299 217.537 418.533C217.131 418.757 216.801 419.093 216.545 419.541C216.299 419.979 216.177 420.501 216.177 421.109C216.177 421.717 216.299 422.251 216.545 422.709C216.801 423.168 217.131 423.52 217.537 423.765C217.953 424 218.39 424.117 218.849 424.117C219.318 424.117 219.755 424 220.161 423.765C220.566 423.531 220.891 423.189 221.137 422.741C221.393 422.283 221.521 421.749 221.521 421.141ZM233.836 420.933C233.836 421.264 233.815 421.563 233.772 421.829H227.036C227.09 422.533 227.351 423.099 227.82 423.525C228.29 423.952 228.866 424.165 229.548 424.165C230.53 424.165 231.223 423.755 231.628 422.933H233.596C233.33 423.744 232.844 424.411 232.14 424.933C231.447 425.445 230.583 425.701 229.548 425.701C228.706 425.701 227.948 425.515 227.276 425.141C226.615 424.757 226.092 424.224 225.708 423.541C225.335 422.848 225.148 422.048 225.148 421.141C225.148 420.235 225.33 419.44 225.692 418.757C226.066 418.064 226.583 417.531 227.244 417.157C227.916 416.784 228.684 416.597 229.548 416.597C230.38 416.597 231.122 416.779 231.772 417.141C232.423 417.504 232.93 418.016 233.292 418.677C233.655 419.328 233.836 420.08 233.836 420.933ZM231.932 420.357C231.922 419.685 231.682 419.147 231.212 418.741C230.743 418.336 230.162 418.133 229.468 418.133C228.839 418.133 228.3 418.336 227.852 418.741C227.404 419.136 227.138 419.675 227.052 420.357H231.932ZM243.196 423.925L245.692 416.741H247.628L244.268 425.557H242.092L238.748 416.741H240.7L243.196 423.925ZM250.83 416.741V425.557H249.006V416.741H250.83ZM251.566 414.373L248.03 416.117V414.773L251.566 412.821V414.373ZM252.617 421.109C252.617 420.224 252.798 419.44 253.161 418.757C253.534 418.075 254.036 417.547 254.665 417.173C255.305 416.789 256.014 416.597 256.793 416.597C257.369 416.597 257.934 416.725 258.489 416.981C259.054 417.227 259.502 417.557 259.833 417.973V413.717H261.673V425.557H259.833V424.229C259.534 424.656 259.118 425.008 258.585 425.285C258.062 425.563 257.46 425.701 256.777 425.701C256.009 425.701 255.305 425.509 254.665 425.125C254.036 424.731 253.534 424.187 253.161 423.493C252.798 422.789 252.617 421.995 252.617 421.109ZM259.833 421.141C259.833 420.533 259.705 420.005 259.449 419.557C259.204 419.109 258.878 418.768 258.473 418.533C258.068 418.299 257.63 418.181 257.161 418.181C256.692 418.181 256.254 418.299 255.849 418.533C255.444 418.757 255.113 419.093 254.857 419.541C254.612 419.979 254.489 420.501 254.489 421.109C254.489 421.717 254.612 422.251 254.857 422.709C255.113 423.168 255.444 423.52 255.849 423.765C256.265 424 256.702 424.117 257.161 424.117C257.63 424.117 258.068 424 258.473 423.765C258.878 423.531 259.204 423.189 259.449 422.741C259.705 422.283 259.833 421.749 259.833 421.141ZM272.149 420.933C272.149 421.264 272.128 421.563 272.085 421.829H265.349C265.402 422.533 265.664 423.099 266.133 423.525C266.602 423.952 267.178 424.165 267.861 424.165C268.842 424.165 269.536 423.755 269.941 422.933H271.909C271.642 423.744 271.157 424.411 270.453 424.933C269.76 425.445 268.896 425.701 267.861 425.701C267.018 425.701 266.261 425.515 265.589 425.141C264.928 424.757 264.405 424.224 264.021 423.541C263.648 422.848 263.461 422.048 263.461 421.141C263.461 420.235 263.642 419.44 264.005 418.757C264.378 418.064 264.896 417.531 265.557 417.157C266.229 416.784 266.997 416.597 267.861 416.597C268.693 416.597 269.434 416.779 270.085 417.141C270.736 417.504 271.242 418.016 271.605 418.677C271.968 419.328 272.149 420.08 272.149 420.933ZM270.245 420.357C270.234 419.685 269.994 419.147 269.525 418.741C269.056 418.336 268.474 418.133 267.781 418.133C267.152 418.133 266.613 418.336 266.165 418.741C265.717 419.136 265.45 419.675 265.365 420.357H270.245ZM277.768 425.701C276.936 425.701 276.184 425.515 275.512 425.141C274.84 424.757 274.312 424.224 273.928 423.541C273.544 422.848 273.352 422.048 273.352 421.141C273.352 420.245 273.549 419.451 273.944 418.757C274.339 418.064 274.877 417.531 275.56 417.157C276.243 416.784 277.005 416.597 277.848 416.597C278.691 416.597 279.453 416.784 280.136 417.157C280.819 417.531 281.357 418.064 281.752 418.757C282.147 419.451 282.344 420.245 282.344 421.141C282.344 422.037 282.141 422.832 281.736 423.525C281.331 424.219 280.776 424.757 280.072 425.141C279.379 425.515 278.611 425.701 277.768 425.701ZM277.768 424.117C278.237 424.117 278.675 424.005 279.08 423.781C279.496 423.557 279.832 423.221 280.088 422.773C280.344 422.325 280.472 421.781 280.472 421.141C280.472 420.501 280.349 419.963 280.104 419.525C279.859 419.077 279.533 418.741 279.128 418.517C278.723 418.293 278.285 418.181 277.816 418.181C277.347 418.181 276.909 418.293 276.504 418.517C276.109 418.741 275.795 419.077 275.56 419.525C275.325 419.963 275.208 420.501 275.208 421.141C275.208 422.091 275.448 422.827 275.928 423.349C276.419 423.861 277.032 424.117 277.768 424.117Z" fill="white"/>
</svg>
