<svg width="26" height="19" viewBox="0 0 26 19" fill="none" xmlns="http://www.w3.org/2000/svg">
<g clip-path="url(#clip0_143_12)">
<path d="M1.04012 2.03027C3.49723 4.52211 5.93914 6.9984 8.38485 9.47857C5.92964 11.9665 3.4871 14.4422 1.03442 16.9269C1.03379 16.9256 1.03315 16.9236 1.03315 16.9223C0.908431 16.5428 0.844487 16.1444 0.844487 15.7441C0.844487 11.5954 0.844487 7.44663 0.844487 3.29789C0.843854 2.86779 0.910331 2.43964 1.04012 2.03027Z" fill="#023047"/>
<path d="M24.9603 16.9612L24.9584 16.9671C22.5019 14.4759 20.0606 12.0002 17.6143 9.51942C20.0745 7.02823 22.5215 4.55 24.971 2.06982C24.9717 2.07112 24.9723 2.07306 24.9723 2.07436C25.0932 2.45458 25.1553 2.85229 25.1553 3.25259V15.7053C25.1553 16.1315 25.0894 16.5558 24.9603 16.9612Z" fill="#023047"/>
<path d="M2.06885 0.929301C2.36578 0.864528 2.60889 0.806879 2.85454 0.76089C2.94697 0.744049 3.04384 0.753765 3.13881 0.753765C9.71367 0.753765 16.2885 0.754413 22.864 0.751822C23.2154 0.751822 23.5541 0.793925 23.8985 0.959097C23.8314 1.03359 23.7808 1.09253 23.727 1.14824C20.3759 4.58835 17.0242 8.02847 13.6719 11.4679C13.2325 11.9188 12.7684 11.9181 12.3291 11.4673C8.97673 8.02847 5.62504 4.58835 2.27398 1.14824C2.22396 1.09706 2.17584 1.04395 2.06885 0.929301Z" fill="#023047"/>
<path d="M16.5576 10.5944C19.0052 13.0746 21.4427 15.5444 23.9302 18.0653C23.6402 18.1308 23.4003 18.1904 23.1584 18.237C23.0666 18.2545 22.9691 18.2448 22.8742 18.2448C16.2923 18.2448 9.71113 18.2448 3.1293 18.2461C2.77982 18.2461 2.44048 18.2104 2.10303 18.033C4.55697 15.5463 6.99445 13.0765 9.44902 10.5898C9.46865 10.6086 9.53259 10.665 9.59147 10.7259C10.1727 11.3218 10.752 11.919 11.3338 12.5143C12.317 13.5215 13.6807 13.5215 14.6671 12.5162C15.3047 11.8652 15.9454 11.2162 16.5576 10.5944Z" fill="#023047"/>
</g>
<defs>
<clipPath id="clip0_143_12">
<rect width="26" height="19" fill="white"/>
</clipPath>
</defs>
</svg>
