<svg width="13" height="15" viewBox="0 0 13 15" fill="none" xmlns="http://www.w3.org/2000/svg">
<path d="M3.77306 7.1407C3.77306 7.0126 3.77306 6.9181 3.77306 6.8236C3.77306 5.1009 3.77238 3.3775 3.77306 1.6548C3.77373 0.874298 4.21137 0.420698 4.96432 0.419998C6.32499 0.419298 7.68566 0.418598 9.04633 0.419998C9.78247 0.420698 10.2255 0.878498 10.2262 1.6401C10.2275 3.4587 10.2268 5.278 10.2268 7.1232C10.3048 7.1288 10.3761 7.1386 10.448 7.1386C10.9435 7.14 11.4389 7.1344 11.9344 7.1414C12.3882 7.1484 12.7223 7.3689 12.9072 7.8022C13.0914 8.2341 13.0241 8.638 12.7344 9.0006C12.6806 9.0678 12.6194 9.128 12.5603 9.1896C10.9986 10.8164 9.43692 12.4425 7.87457 14.0686C7.28768 14.6797 6.70549 14.6818 6.12331 14.0756C4.54348 12.4306 2.96432 10.7849 1.38314 9.1413C1.16196 8.9117 0.999946 8.6583 0.989862 8.3202C0.970366 7.6678 1.42482 7.154 2.05272 7.1414C2.61339 7.1323 3.17541 7.1407 3.77306 7.1407Z" fill="#023047"/>
</svg>
