<svg width="22" height="22" viewBox="0 0 22 22" fill="none" xmlns="http://www.w3.org/2000/svg">
<g clip-path="url(#clip0_305_2)">
<path d="M10.8591 0.210938H11.2541C11.4449 0.210938 11.6349 0.229482 11.8249 0.245918C11.8253 0.245918 11.8262 0.245918 11.8266 0.245918C14.187 0.438945 16.2824 1.29998 18.0299 2.91373C20.9658 5.62538 22.1941 8.99956 21.4328 12.9621C20.1378 19.7054 12.8399 23.592 6.41492 20.5517C6.2795 20.4876 6.15825 20.4497 6.002 20.4868C4.66534 20.8012 3.32617 21.1038 1.98867 21.4148C1.46367 21.537 0.941169 21.6711 0.417835 21.7996C0.398669 21.7823 0.397835 21.7815 0.378669 21.7642C0.384919 21.7174 0.390335 21.6702 0.400335 21.6243C0.797835 19.7888 1.19742 17.9538 1.5895 16.1171C1.61034 16.0193 1.592 15.8933 1.547 15.804C1.04284 14.8038 0.672835 13.7586 0.489919 12.6494C0.429085 12.2835 0.384919 11.9152 0.333252 11.5481C0.333669 11.1064 0.334502 10.6711 0.334919 10.2294C0.402002 9.76281 0.452835 9.29289 0.539919 8.83013C1.34075 4.57385 4.89784 1.07155 9.12034 0.378256C9.3545 0.339903 9.58992 0.308294 9.82534 0.277528C10.1678 0.232853 10.5133 0.210938 10.8591 0.210938ZM2.55659 19.5507C2.62534 19.5372 2.66409 19.5309 2.70242 19.522C3.85159 19.2582 5.00117 18.9973 6.14867 18.7272C6.33992 18.6821 6.49742 18.6956 6.67742 18.7934C8.80242 19.9486 11.0445 20.2305 13.367 19.5861C19.2458 17.9551 21.8191 11.1726 18.5283 6.03209C16.5249 2.90362 12.8028 1.31052 9.1845 2.08262C6.50575 2.6537 4.46742 4.16335 3.11659 6.57534C2.17534 8.25569 1.83284 10.073 2.07325 11.9948C2.23075 13.252 2.66034 14.4132 3.287 15.5056C3.34075 15.5996 3.37825 15.734 3.35784 15.8356C3.19867 16.6182 3.02242 17.3975 2.85242 18.178C2.7545 18.6277 2.65867 19.0774 2.55659 19.5507Z" fill="black"/>
<path d="M7.77843 6.19182C8.40009 6.19182 8.48384 6.24451 8.69884 6.76332C8.93176 7.32596 9.15468 7.89282 9.38968 8.45462C9.46009 8.6232 9.47634 8.78715 9.37134 8.93466C9.19843 9.17784 9.02093 9.41933 8.82426 9.64271C8.57593 9.92466 8.56051 9.98577 8.74926 10.3027C9.53051 11.6143 10.6134 12.5706 12.0184 13.1496C12.2938 13.2634 12.3905 13.2483 12.5805 13.0173C12.8201 12.7261 13.0563 12.4315 13.2884 12.1339C13.4672 11.9051 13.5622 11.8511 13.8222 11.9717C14.5084 12.2903 15.188 12.6245 15.8605 12.9718C15.9459 13.0156 16.0201 13.1753 16.0193 13.2807C16.0134 13.9555 15.8263 14.5379 15.2363 14.9531C14.4797 15.4862 13.6788 15.5304 12.8138 15.321C10.5463 14.7718 8.80343 13.4657 7.45593 11.5759C6.98926 10.921 6.51259 10.2715 6.27718 9.4834C5.94759 8.3796 6.12884 7.39297 6.92718 6.54079C7.18093 6.27064 7.47593 6.14631 7.77843 6.19182Z" fill="black"/>
</g>
<defs>
<clipPath id="clip0_305_2">
<rect width="22" height="22" fill="white"/>
</clipPath>
</defs>
</svg>
